<svg xmlns="http://www.w3.org/2000/svg" width="196" height="196" viewBox="0 0 196 196"><defs><linearGradient id="m" x1="0" y1="0" x2="0" y2="1"><stop stop-color="#eeeeec"/><stop offset=".48" stop-color="#aaaaa8"/><stop offset="1" stop-color="#555858"/></linearGradient><radialGradient id="s" cx=".33" cy=".22" r=".82"><stop stop-color="#fff" stop-opacity=".30"/><stop offset=".5" stop-color="#fff" stop-opacity="0"/><stop offset="1" stop-color="#000" stop-opacity=".22"/></radialGradient></defs><ellipse cx="98" cy="106" rx="75.64" ry="75.64" fill="#000" fill-opacity=".45"/><circle cx="98" cy="98" r="72.64" fill="#101313" stroke="#777777" stroke-width="2.5"/><path d="M48.76 48.76L44.51 44.51" stroke="#e7e7e7" stroke-opacity="0.8" stroke-width="1.4"/><path d="M61.61 38.62L60.05 36.06" stroke="#e7e7e7" stroke-opacity="0.42" stroke-width="0.8"/><path d="M76.48 31.77L75.55 28.92" stroke="#e7e7e7" stroke-opacity="0.42" stroke-width="0.8"/><path d="M92.54 28.57L92.30 25.58" stroke="#e7e7e7" stroke-opacity="0.42" stroke-width="0.8"/><path d="M108.89 29.22L109.36 26.25" stroke="#e7e7e7" stroke-opacity="0.42" stroke-width="0.8"/><path d="M124.65 33.66L126.95 28.12" stroke="#e7e7e7" stroke-opacity="0.8" stroke-width="1.4"/><path d="M138.93 41.66L140.70 39.23" stroke="#e7e7e7" stroke-opacity="0.42" stroke-width="0.8"/><path d="M150.95 52.77L153.24 50.82" stroke="#e7e7e7" stroke-opacity="0.42" stroke-width="0.8"/><path d="M160.05 66.38L162.72 65.02" stroke="#e7e7e7" stroke-opacity="0.42" stroke-width="0.8"/><path d="M165.72 81.74L168.63 81.04" stroke="#e7e7e7" stroke-opacity="0.42" stroke-width="0.8"/><path d="M167.64 98.00L173.64 98.00" stroke="#e7e7e7" stroke-opacity="0.8" stroke-width="1.4"/><path d="M165.72 114.26L168.63 114.96" stroke="#e7e7e7" stroke-opacity="0.42" stroke-width="0.8"/><path d="M160.05 129.62L162.72 130.98" stroke="#e7e7e7" stroke-opacity="0.42" stroke-width="0.8"/><path d="M150.95 143.23L153.24 145.18" stroke="#e7e7e7" stroke-opacity="0.42" stroke-width="0.8"/><path d="M138.93 154.34L140.70 156.77" stroke="#e7e7e7" stroke-opacity="0.42" stroke-width="0.8"/><path d="M124.65 162.34L126.95 167.88" stroke="#e7e7e7" stroke-opacity="0.8" stroke-width="1.4"/><path d="M108.89 166.78L109.36 169.75" stroke="#e7e7e7" stroke-opacity="0.42" stroke-width="0.8"/><path d="M92.54 167.43L92.30 170.42" stroke="#e7e7e7" stroke-opacity="0.42" stroke-width="0.8"/><path d="M76.48 164.23L75.55 167.08" stroke="#e7e7e7" stroke-opacity="0.42" stroke-width="0.8"/><path d="M61.61 157.38L60.05 159.94" stroke="#e7e7e7" stroke-opacity="0.42" stroke-width="0.8"/><path d="M48.76 147.24L44.51 151.49" stroke="#e7e7e7" stroke-opacity="0.8" stroke-width="1.4"/><circle cx="98" cy="98" r="66.64" fill="#777777"/><circle cx="98" cy="98" r="63.64" fill="#171919"/><circle cx="98" cy="98" r="58.64" fill="url(#m)" stroke="#b8b8b8" stroke-opacity=".82" stroke-width="2"/><circle cx="98" cy="98" r="58.64" fill="url(#s)"/><path d="M65.74799999999999 65.74799999999999 A45.739200000000004 45.739200000000004 0 0 1 121.456 61.6432" fill="none" stroke="#fff" stroke-opacity=".34" stroke-width="3.5279999999999996"/><circle cx="98" cy="98" r="3.5279999999999996" fill="#202222"/></svg>