<svg xmlns="http://www.w3.org/2000/svg" width="512" height="512" viewBox="0 0 512 512"><defs><linearGradient id="g" x1="0" y1="0" x2="0" y2="1"><stop stop-color="#4b5052"/><stop offset="1" stop-color="#171e20"/></linearGradient><linearGradient id="h" x1="0" y1="0" x2="1" y2="0"><stop stop-color="#fff" stop-opacity=".18"/><stop offset=".25" stop-color="#fff" stop-opacity="0"/><stop offset=".8" stop-color="#000" stop-opacity=".12"/></linearGradient></defs><rect width="512" height="512" rx="18" fill="url(#g)"/><g opacity=".11" stroke="#fff" stroke-width="1"><path d="M0 0.5H512"/><path d="M0 8.5H512"/><path d="M0 16.5H512"/><path d="M0 24.5H512"/><path d="M0 32.5H512"/><path d="M0 40.5H512"/><path d="M0 48.5H512"/><path d="M0 56.5H512"/><path d="M0 64.5H512"/><path d="M0 72.5H512"/><path d="M0 80.5H512"/><path d="M0 88.5H512"/><path d="M0 96.5H512"/><path d="M0 104.5H512"/><path d="M0 112.5H512"/><path d="M0 120.5H512"/><path d="M0 128.5H512"/><path d="M0 136.5H512"/><path d="M0 144.5H512"/><path d="M0 152.5H512"/><path d="M0 160.5H512"/><path d="M0 168.5H512"/><path d="M0 176.5H512"/><path d="M0 184.5H512"/><path d="M0 192.5H512"/><path d="M0 200.5H512"/><path d="M0 208.5H512"/><path d="M0 216.5H512"/><path d="M0 224.5H512"/><path d="M0 232.5H512"/><path d="M0 240.5H512"/><path d="M0 248.5H512"/><path d="M0 256.5H512"/><path d="M0 264.5H512"/><path d="M0 272.5H512"/><path d="M0 280.5H512"/><path d="M0 288.5H512"/><path d="M0 296.5H512"/><path d="M0 304.5H512"/><path d="M0 312.5H512"/><path d="M0 320.5H512"/><path d="M0 328.5H512"/><path d="M0 336.5H512"/><path d="M0 344.5H512"/><path d="M0 352.5H512"/><path d="M0 360.5H512"/><path d="M0 368.5H512"/><path d="M0 376.5H512"/><path d="M0 384.5H512"/><path d="M0 392.5H512"/><path d="M0 400.5H512"/><path d="M0 408.5H512"/><path d="M0 416.5H512"/><path d="M0 424.5H512"/><path d="M0 432.5H512"/><path d="M0 440.5H512"/><path d="M0 448.5H512"/><path d="M0 456.5H512"/><path d="M0 464.5H512"/><path d="M0 472.5H512"/><path d="M0 480.5H512"/><path d="M0 488.5H512"/><path d="M0 496.5H512"/><path d="M0 504.5H512"/></g><rect x="4" y="4" width="504" height="504" rx="15" fill="none" stroke="#a86143" stroke-width="4"/><rect x="10" y="10" width="492" height="492" rx="12" fill="none" stroke="#fff" stroke-opacity=".18"/><rect width="512" height="512" rx="18" fill="url(#h)"/></svg>